<svg width="19" height="17" viewBox="0 0 19 17" fill="none" xmlns="http://www.w3.org/2000/svg">
<path fill-rule="evenodd" clip-rule="evenodd" d="M4.09184 10.2966C4.13197 10.3103 4.17324 10.3202 4.21513 10.3262C4.47937 10.9636 4.74213 11.6017 5.0034 12.2404C5.47319 13.3897 5.94672 14.5734 6.05039 14.9137C6.18021 15.3325 6.31658 15.6175 6.46601 15.8125C6.54353 15.9119 6.63226 15.9999 6.73687 16.0668C6.79136 16.1017 6.84966 16.13 6.91059 16.151C7.20946 16.2657 7.48218 16.2179 7.6531 16.1596C7.7534 16.1245 7.84884 16.0763 7.93703 16.0162L7.9417 16.0142L10.5811 14.3295L13.6306 16.7218C13.6754 16.7572 13.724 16.7868 13.7763 16.8107C14.1424 16.9732 14.4973 17.0306 14.8317 16.9847C15.1642 16.9369 15.4285 16.7945 15.6255 16.6329C15.8518 16.4462 16.0322 16.2078 16.1523 15.9368L16.1607 15.9158L16.1635 15.9081L16.1654 15.9043V15.9024L16.1663 15.9014C16.1825 15.8603 16.1951 15.8177 16.2037 15.7743L18.9869 1.40839C18.9957 1.36241 19.0001 1.31565 19 1.2688C19 0.848098 18.845 0.447479 18.4816 0.205577C18.1697 -0.00190305 17.8232 -0.0114645 17.6037 0.00574588C17.3683 0.0248685 17.1498 0.0841486 17.0032 0.131955C16.9211 0.158588 16.8401 0.188571 16.7603 0.221832L16.75 0.226612L1.13954 6.49501L1.13767 6.49596C1.08485 6.51585 1.03282 6.53786 0.981693 6.56194C0.857906 6.61891 0.73916 6.68673 0.626781 6.76464C0.414768 6.91284 -0.0737022 7.32015 0.00942189 7.99327C0.0748004 8.5287 0.433448 8.85856 0.652933 9.01728C0.772482 9.10429 0.886427 9.16644 0.970485 9.20755C1.00784 9.22667 1.08817 9.25918 1.12272 9.27448L1.13206 9.27735L4.09184 10.2966ZM17.2964 1.54607H17.2946C17.2865 1.54973 17.2784 1.55323 17.2703 1.55659L1.64108 7.83359C1.63304 7.83692 1.62495 7.84011 1.6168 7.84315L1.60746 7.84602C1.57891 7.85751 1.55086 7.87027 1.5234 7.88427C1.5494 7.89951 1.57621 7.91324 1.60372 7.92538L4.53828 8.93697C4.59072 8.95506 4.64088 8.97945 4.68772 9.00963L14.3796 3.20114L14.3889 3.19636C14.4266 3.17294 14.4652 3.15124 14.5048 3.13134C14.572 3.09596 14.6794 3.04433 14.8008 3.00609C14.8849 2.97931 15.1343 2.90378 15.4032 2.9927C15.5459 3.03874 15.6731 3.12492 15.7702 3.24141C15.8673 3.3579 15.9304 3.5 15.9524 3.65147C15.9872 3.78414 15.9882 3.92372 15.9552 4.05687C15.8899 4.31981 15.7105 4.52442 15.5471 4.68123C15.407 4.81509 13.5895 6.60879 11.7972 8.37954L9.35668 10.789L8.92237 11.2193L14.4067 15.5238C14.4807 15.5556 14.5611 15.5687 14.6411 15.562C14.6814 15.5564 14.7193 15.5392 14.7504 15.5123C14.7883 15.4796 14.8207 15.4408 14.8466 15.3975L14.8485 15.3966L17.5477 1.46289C17.4626 1.48383 17.3793 1.51131 17.2983 1.54512L17.2964 1.54607ZM9.39403 13.3964L8.29941 12.5378L8.03416 14.2636L9.39403 13.3964ZM7.29538 10.8339L8.38347 9.75828L10.824 7.34692L11.7327 6.45007L5.64318 10.0996L5.67587 10.178C6.05992 11.1068 6.43975 12.0375 6.81532 12.9699L7.07964 11.2489C7.10355 11.0893 7.17961 10.9436 7.29538 10.8339Z" fill="#000000"/>
</svg>
