<svg width="23" height="15" viewBox="0 0 23 15" fill="none" xmlns="http://www.w3.org/2000/svg">
<path d="M21.004 14.1754H18.722C17.859 14.1754 17.599 13.4505 16.052 11.845C14.7 10.4937 14.129 10.3257 13.787 10.3257C13.314 10.3257 13.185 10.4605 13.185 11.1356V13.2638C13.185 13.8394 13.005 14.1764 11.555 14.1764C10.1483 14.0784 8.78416 13.6352 7.57497 12.8833C6.36578 12.1314 5.34612 11.0924 4.6 9.85171C2.82839 7.56492 1.59571 4.88096 1 2.01329C1 1.6586 1.13 1.3371 1.782 1.3371H4.062C4.648 1.3371 4.859 1.60778 5.089 2.23316C6.196 5.61204 8.085 8.55118 8.852 8.55118C9.146 8.55118 9.274 8.41636 9.274 7.65616V4.17565C9.177 2.58785 8.364 2.45406 8.364 1.87951C8.37428 1.72792 8.44114 1.58647 8.55037 1.48519C8.65961 1.38391 8.80261 1.33079 8.949 1.3371H12.533C13.023 1.3371 13.185 1.59015 13.185 2.1979V6.89597C13.185 7.40311 13.395 7.57112 13.543 7.57112C13.837 7.57112 14.063 7.40311 14.602 6.84515C15.7574 5.38386 16.7013 3.7558 17.404 2.01225C17.4759 1.80292 17.6119 1.62373 17.7912 1.50202C17.9705 1.38031 18.1832 1.32275 18.397 1.33814H20.678C21.362 1.33814 21.507 1.69283 21.362 2.19893C20.5324 4.1263 19.5058 5.95584 18.3 7.65616C18.054 8.04508 17.956 8.24731 18.3 8.70364C18.526 9.05833 19.326 9.75111 19.863 10.4097C20.645 11.2186 21.294 12.1541 21.785 13.1787C21.981 13.8383 21.655 14.1754 21.004 14.1754Z" stroke="#000000" stroke-width="1.5"/>
</svg>
