<svg width="17" height="17" viewBox="0 0 17 17" fill="none" xmlns="http://www.w3.org/2000/svg">
<path d="M14.5226 2.47354C13.7394 1.68638 12.8065 1.06226 11.7783 0.637592C10.7502 0.212919 9.64735 -0.00380809 8.53414 5.0634e-05C3.86984 5.0634e-05 0.0683416 3.78254 0.0683416 8.42352C0.0683416 9.91102 0.461305 11.356 1.19598 12.631L0 17L4.48491 15.827C5.7236 16.4985 7.11606 16.8555 8.53414 16.8555C13.1984 16.8555 16.9999 13.073 16.9999 8.43202C16.9999 6.17953 16.12 4.06304 14.5226 2.47354ZM8.53414 15.4275C7.26982 15.4275 6.03114 15.0875 4.94621 14.45L4.68993 14.297L2.02462 14.994L2.73366 12.41L2.56281 12.1465C1.86038 11.0304 1.4874 9.74038 1.48643 8.42352C1.48643 4.56454 4.64722 1.41955 8.5256 1.41955C10.405 1.41955 12.1733 2.15054 13.4974 3.47654C14.1531 4.12591 14.6727 4.8983 15.0261 5.74894C15.3795 6.59959 15.5597 7.51157 15.5562 8.43202C15.5733 12.291 12.4125 15.4275 8.53414 15.4275ZM12.3954 10.1915C12.1819 10.0895 11.1397 9.57952 10.9517 9.50302C10.7552 9.43502 10.6186 9.40102 10.4733 9.60502C10.3281 9.81752 9.9266 10.2935 9.807 10.4295C9.6874 10.574 9.55926 10.591 9.3457 10.4805C9.13213 10.3785 8.44872 10.149 7.6457 9.43502C7.01354 8.87402 6.59495 8.18553 6.46681 7.97303C6.34721 7.76053 6.44973 7.65003 6.56078 7.53953C6.65475 7.44603 6.77435 7.29303 6.87686 7.17403C6.97937 7.05503 7.02209 6.96153 7.09043 6.82553C7.15877 6.68103 7.1246 6.56203 7.07334 6.46003C7.02209 6.35803 6.59495 5.32103 6.4241 4.89604C6.25324 4.48804 6.07385 4.53904 5.94571 4.53054H5.53566C5.39043 4.53054 5.16832 4.58154 4.97184 4.79404C4.7839 5.00654 4.23717 5.51653 4.23717 6.55353C4.23717 7.59053 4.99747 8.59352 5.09998 8.72952C5.2025 8.87402 6.59495 10.999 8.71354 11.9085C9.21756 12.1295 9.61052 12.257 9.91806 12.3505C10.4221 12.512 10.8834 12.4865 11.2507 12.4355C11.6608 12.376 12.5065 11.9255 12.6773 11.4325C12.8567 10.9395 12.8567 10.523 12.7969 10.4295C12.7371 10.336 12.609 10.2935 12.3954 10.1915Z" fill="#000000"/>
</svg>
